<svg width="16" height="16" viewBox="0 0 16 16" fill="none" xmlns="http://www.w3.org/2000/svg">
<path d="M11.7321 10.0391H10.9907L10.7279 9.79265C11.8541 8.51503 12.436 6.77198 12.1169 4.91943C11.6758 2.38243 9.4984 0.356481 6.87055 0.0462004C2.90061 -0.428346 -0.440517 2.82047 0.0475131 6.68072C0.36661 9.23597 2.45012 11.3532 5.05921 11.7821C6.9644 12.0924 8.75697 11.5266 10.0709 10.4315L10.3243 10.687V11.4079L14.313 15.2864C14.6978 15.6606 15.3266 15.6606 15.7114 15.2864C16.0962 14.9123 16.0962 14.3008 15.7114 13.9267L11.7321 10.0391ZM6.10096 10.0391C3.76405 10.0391 1.87763 8.20475 1.87763 5.9324C1.87763 3.66005 3.76405 1.82575 6.10096 1.82575C8.43788 1.82575 10.3243 3.66005 10.3243 5.9324C10.3243 8.20475 8.43788 10.0391 6.10096 10.0391Z" fill="#9E9E9E"/>
</svg>
